<svg width="28" height="28" viewBox="0 0 28 28" fill="none" xmlns="http://www.w3.org/2000/svg">
<path d="M23.3334 14.0001V8.16675H25.6667V15.1667H23.3334M23.3334 19.8334H25.6667V17.5001H23.3334M11.6667 15.1667C14.7817 15.1667 21 16.7301 21 19.8334V23.3334H2.33337V19.8334C2.33337 16.7301 8.55171 15.1667 11.6667 15.1667ZM11.6667 4.66675C12.9044 4.66675 14.0914 5.15841 14.9665 6.03358C15.8417 6.90875 16.3334 8.09574 16.3334 9.33341C16.3334 10.5711 15.8417 11.7581 14.9665 12.6332C14.0914 13.5084 12.9044 14.0001 11.6667 14.0001C10.429 14.0001 9.24205 13.5084 8.36688 12.6332C7.49171 11.7581 7.00004 10.5711 7.00004 9.33341C7.00004 8.09574 7.49171 6.90875 8.36688 6.03358C9.24205 5.15841 10.429 4.66675 11.6667 4.66675ZM11.6667 17.3834C8.20171 17.3834 4.55004 19.0867 4.55004 19.8334V21.1167H18.7834V19.8334C18.7834 19.0867 15.1317 17.3834 11.6667 17.3834ZM11.6667 6.88341C11.0169 6.88341 10.3938 7.14154 9.9343 7.601C9.47483 8.06047 9.21671 8.68363 9.21671 9.33341C9.21671 9.98319 9.47483 10.6064 9.9343 11.0658C10.3938 11.5253 11.0169 11.7834 11.6667 11.7834C12.3165 11.7834 12.9397 11.5253 13.3991 11.0658C13.8586 10.6064 14.1167 9.98319 14.1167 9.33341C14.1167 8.68363 13.8586 8.06047 13.3991 7.601C12.9397 7.14154 12.3165 6.88341 11.6667 6.88341Z" fill="black"/>
</svg>
