<svg xmlns="http://www.w3.org/2000/svg" viewBox="0 0 24 24" fill="currentColor">
  <path d="M20 6h-2.18c.11-.31.18-.65.18-1a2.5 2.5 0 0 0-5-0c0 .35.07.69.18 1H11c.11-.31.18-.65.18-1a2.5 2.5 0 0 0-5-0c0 .35.07.69.18 1H4c-1.1 0-2 .89-2 2L2 18c0 1.1.89 2 2 2h16c1.1 0 2-.89 2-2V8c0-1.1-.89-2-2-2zm-5-2c0-.55.45-1 1-1s1 .45 1 1-.45 1-1 1-1-.45-1-1zM7 3c.55 0 1 .45 1 1s-.45 1-1 1-1-.45-1-1 .45-1 1-1zm13 15H4v-2h16v2zm0-5H4V8h3.08L6.07 9.87l1.76 1.12L10.53 8h2.93l2.71 3.01 1.76-1.12L15.92 8H20v5z"/>
</svg>
