<svg xmlns="http://www.w3.org/2000/svg" viewBox="0 0 24 24" fill="currentColor">
  <path d="M12.525.02c1.31-.02 2.61-.01 3.91-.02.08 1.53.63 3.09 1.75 4.17 1.12 1.11 2.7 1.62 4.24 1.79v4.03c-1.44-.17-2.86-.74-3.98-1.72a7.513 7.513 0 0 1-1.37-1.61v7.41c.04 2.15-.75 4.38-2.38 5.79-1.8 1.58-4.4 2.11-6.68 1.48-2.58-.69-4.83-2.92-5.26-5.59-.57-3.26 1.42-6.66 4.65-7.39.86-.2 1.75-.18 2.61-.03v4.07c-.7-.18-1.46-.22-2.16-.01-1.24.34-2.24 1.5-2.29 2.8-.1 2.01 1.78 3.69 3.74 3.37 1.52-.2 2.68-1.57 2.67-3.11V.02z"/>
</svg>
